HIERARCHY
ROOT hip
{
	OFFSET 0.000000 0.000000 0.000000 
	CHANNELS 6 Xposition Yposition Zposition Xrotation Zrotation Yrotation
	JOINT abdomen
	{
		OFFSET 0.000000 3.402643 0.000000 
		CHANNELS 3 Xrotation Zrotation Yrotation
		JOINT chest
		{
			OFFSET 0.000000 8.438565 -0.680529 
			CHANNELS 3 Xrotation Zrotation Yrotation
			JOINT neck
			{
				OFFSET 0.000000 10.207942 -0.272212 
				CHANNELS 3 Xrotation Zrotation Yrotation
				JOINT head
				{
					OFFSET 0.000000 3.130431 0.000000 
					CHANNELS 3 Xrotation Zrotation Yrotation
					End Site
					{
						OFFSET 0.000000 3.130435 0.000000 
					}
				}
			}
			JOINT lCollar
			{
				OFFSET 3.470700 6.669187 -0.816635 
				CHANNELS 3 Yrotation Zrotation Xrotation
				JOINT lShldr
				{
					OFFSET 3.198488 0.000000 0.000000 
					CHANNELS 3 Zrotation Yrotation Xrotation
					JOINT lForeArm
					{
						OFFSET 10.139888 0.000000 0.000000 
						CHANNELS 3 Yrotation Zrotation Xrotation
						JOINT lHand
						{
							OFFSET 8.370511 0.000000 0.000000 
							CHANNELS 3 Zrotation Yrotation Xrotation
							End Site
							{
								OFFSET 4.083176 0.000000 0.000000 
							}
						}
					}
				}
			}
			JOINT rCollar
			{
				OFFSET -3.470700 6.669187 -0.816635 
				CHANNELS 3 Yrotation Zrotation Xrotation
				JOINT rShldr
				{
					OFFSET -3.198488 0.000000 0.000000 
					CHANNELS 3 Zrotation Yrotation Xrotation
					JOINT rForeArm
					{
						OFFSET -10.139888 0.000000 0.000000 
						CHANNELS 3 Yrotation Zrotation Xrotation
						JOINT rHand
						{
							OFFSET -8.370511 0.000000 0.000000 
							CHANNELS 3 Zrotation Yrotation Xrotation
							End Site
							{
								OFFSET -4.083176 0.000000 0.000000 
							}
						}
					}
				}
			}
		}
	}
	JOINT lThigh
	{
		OFFSET 5.308129 -1.633274 1.361059 
		CHANNELS 3 Xrotation Zrotation Yrotation
		JOINT lShin
		{
			OFFSET -2.041588 -20.007561 0.000000 
			CHANNELS 3 Xrotation Zrotation Yrotation
			JOINT lFoot
			{
				OFFSET 0.000000 -19.190928 -1.224953 
				CHANNELS 3 Xrotation Yrotation Zrotation
				End Site
				{
					OFFSET 0.000000 -2.449906 4.627600 
				}
			}
		}
	}
	JOINT rThigh
	{
		OFFSET -5.308129 -1.633274 1.361059 
		CHANNELS 3 Xrotation Zrotation Yrotation
		JOINT rShin
		{
			OFFSET 2.041588 -20.007561 0.000000 
			CHANNELS 3 Xrotation Zrotation Yrotation
			JOINT rFoot
			{
				OFFSET 0.000000 -19.190928 -1.224953 
				CHANNELS 3 Xrotation Yrotation Zrotation
				End Site
				{
					OFFSET 0.000000 -2.449906 4.627600 
				}
			}
		}
	}
}
MOTION
Frames: 8
Frame Time: 0.033333
-1.890858 53.215473 0.169792 -37.861328 37.773438 -151.640625 60.909714 -10.038157 -10.143129 -18.027346 -13.535157 7.509766 51.063168 8.107644 2.471410 -60.048832 3.525390 -15.810546 2.000000 -2.000000 0.000000 30.458986 -58.125000 -58.133289 -70.615440 -1.181203 -2.695620 68.704155 36.291557 31.289837 -2.000000 2.000000 0.000000 63.466793 -33.037109 10.068360 91.132416 0.155535 -3.058270 -81.130165 -52.893024 49.313507 -51.791233 18.276281 22.301830 0.249424 -5.281729 -0.238098 2.893465 0.260026 -6.384642 -72.766312 -7.334054 6.586761 97.355644 -1.602355 4.809078 -5.885730 16.026417 12.760241 
-1.840902 53.223343 0.177522 -37.646484 37.851563 -151.702988 61.078156 -10.117189 -9.987083 -17.841797 -13.525392 7.458653 51.063168 8.107644 2.471410 -60.214844 3.544922 -16.005859 2.000000 -2.000000 0.000000 30.820313 -58.242184 -58.328621 -70.615440 -1.181203 -2.695620 68.263573 36.149555 31.084652 -2.000000 2.000000 0.000000 63.261719 -32.919922 10.312499 91.132416 0.145786 -3.058834 -80.809998 -53.129215 49.107853 -51.765598 18.425825 22.416351 0.425668 -5.260684 -0.272679 2.915846 0.488070 -6.666536 -72.757469 -7.168218 6.648726 97.201317 -1.407238 4.698659 -5.694839 15.421440 12.385840 
-1.790959 53.231224 0.185252 -37.373047 37.792969 -151.585815 61.091759 -10.283526 -9.988550 -17.851563 -13.359374 7.509766 51.063168 8.107644 2.471410 -60.390629 3.554687 -16.181641 2.000000 -2.000000 0.000000 31.357422 -58.339844 -58.758316 -70.624947 -1.170888 -2.686241 68.320152 35.937351 31.148298 -2.000000 2.000000 0.000000 63.427731 -33.007813 9.902344 91.132416 0.145786 -3.058834 -80.476845 -53.207645 48.818420 -51.724842 18.775908 22.267208 0.776831 -5.259677 -0.331432 2.786580 0.277499 -6.587407 -72.548630 -7.119311 6.088263 97.347290 -1.591453 4.782412 -5.853755 15.131227 11.757174 
-1.754601 53.223343 0.202830 -37.158203 37.841797 -151.644394 61.250301 -10.362585 -9.834293 -17.851563 -13.359374 7.509766 51.063168 8.107644 2.471410 -60.214844 3.710937 -16.386721 2.000000 -2.000000 0.000000 31.523441 -58.115231 -58.797356 -70.615440 -1.181203 -2.695620 68.263573 36.149555 31.084652 -2.000000 2.000000 0.000000 63.593754 -32.978516 10.043514 91.132416 0.145786 -3.058834 -80.388756 -53.271126 48.586365 -51.854992 19.052628 21.977139 0.766405 -5.270475 -0.281715 2.919436 0.259624 -6.808275 -72.546249 -6.923686 5.961493 97.529648 -1.600999 4.599717 -5.649042 14.874878 11.397243 
-1.718242 53.223343 0.220407 -36.884762 37.792969 -151.527206 61.447823 -10.513022 -9.850705 -18.037109 -13.183596 7.566133 51.063168 8.107644 2.471410 -60.214844 3.710937 -16.386721 2.000000 -2.000000 0.000000 31.777342 -58.066410 -59.033211 -70.791519 -1.162270 -2.706496 68.510742 36.300354 31.273649 -2.000000 2.000000 0.000000 63.808598 -33.281250 9.633313 91.136497 0.329727 -3.194921 -80.449570 -53.078461 48.705391 -51.802738 19.214964 22.095024 1.117850 -5.267078 -0.350265 2.702369 0.282844 -6.794119 -72.331924 -6.904256 5.602512 97.708969 -1.620671 4.750189 -5.814317 14.745881 10.861209 
-1.687369 53.231224 0.256349 -36.884762 37.792969 -151.703003 61.431126 -10.601232 -9.698154 -18.017578 -13.349610 7.536808 51.063168 8.107644 2.471410 -60.185551 3.876953 -16.582031 2.000000 -2.000000 0.000000 31.777342 -58.066410 -59.033211 -70.791519 -1.162270 -2.706496 68.510742 36.300354 31.273649 -2.000000 2.000000 0.000000 64.111328 -33.623047 9.994592 91.132416 0.155535 -3.058270 -80.388756 -53.271126 48.586365 -51.752956 19.516954 22.099710 1.314328 -5.291584 -0.356719 2.554848 0.318633 -6.535920 -72.317444 -6.747963 5.491951 97.531258 -1.620558 4.798243 -5.485624 14.219222 10.764360 
-1.656496 53.223343 0.292279 -36.591797 37.734379 -151.507690 61.589481 -10.686084 -9.554766 -18.212891 -13.359374 7.578125 51.063168 8.107644 2.471410 -60.009769 4.042969 -16.591801 2.000000 -2.000000 0.000000 31.933594 -58.232426 -59.023434 -70.614693 -1.130760 -2.669018 68.681244 36.221756 31.202446 -2.000000 2.000000 0.000000 64.169922 -33.789066 9.853516 90.956627 0.175034 -3.057142 -80.313408 -53.374622 48.451881 -51.918854 19.672846 22.163727 2.026478 -5.271116 -0.582495 1.928879 0.122180 -6.369132 -72.111977 -6.738718 5.130489 97.710213 -1.631973 4.967277 -5.857872 13.774196 10.268280 
-1.642887 53.223343 0.315863 -36.386715 37.792969 -151.468628 61.572510 -10.774343 -9.404068 -18.388672 -13.359375 7.617188 51.063168 8.107644 2.471410 -60.009769 4.042969 -16.777344 2.000000 -2.000000 0.000000 31.933594 -58.232426 -59.023434 -70.614693 -1.130760 -2.669018 68.761284 36.187065 31.411961 -2.000000 2.000000 0.000000 64.375008 -33.769535 9.574651 91.132416 0.155535 -3.058270 -80.527779 -53.485424 48.483841 -51.918373 19.672409 22.173120 2.203352 -5.273378 -0.597233 1.912039 0.007389 -6.618185 -72.111267 -6.709132 4.969294 97.533348 -1.592896 4.771538 -5.684410 13.590450 9.939619 
